<?xml version="1.0" encoding="UTF-8" standalone="no"?>
<svg
   xmlns:dc="http://purl.org/dc/elements/1.1/"
   xmlns:cc="http://creativecommons.org/ns#"
   xmlns:rdf="http://www.w3.org/1999/02/22-rdf-syntax-ns#"
   xmlns:svg="http://www.w3.org/2000/svg"
   xmlns="http://www.w3.org/2000/svg"
   xmlns:sodipodi="http://sodipodi.sourceforge.net/DTD/sodipodi-0.dtd"
   xmlns:inkscape="http://www.inkscape.org/namespaces/inkscape"
   height="298.62851"
   id="svg2287"
   inkscape:version="0.48.2 r9819"
   sodipodi:docname="Anonymous_aiga_car_rental.svg"
   sodipodi:version="0.32"
   width="357.08099"
   inkscape:output_extension="org.inkscape.output.svg.inkscape"
   inkscape:export-filename="/home/joanna/gfx/vector/anon/aiga/aiga_car_rental_.png"
   inkscape:export-xdpi="37.806549"
   inkscape:export-ydpi="37.806549"
   version="1.1">
  <metadata
     id="metadata3">
    <rdf:RDF>
      <cc:Work
         rdf:about="">
        <dc:title></dc:title>
        <dc:description>EPS converted from  http://aiga.org</dc:description>
        <dc:subject>
          <rdf:Bag>
            <rdf:li>symbol</rdf:li>
            <rdf:li>mapsym</rdf:li>
          </rdf:Bag>
        </dc:subject>
        <dc:publisher>
          <cc:Agent
             rdf:about="http://www.openclipart.org/">
            <dc:title>Open Clip Art Library</dc:title>
          </cc:Agent>
        </dc:publisher>
        <dc:creator>
          <cc:Agent>
            <dc:title>Jean-Victor Balin</dc:title>
          </cc:Agent>
        </dc:creator>
        <dc:rights>
          <cc:Agent>
            <dc:title>Jean-Victor Balin</dc:title>
          </cc:Agent>
        </dc:rights>
        <dc:date />
        <dc:format>image/svg+xml</dc:format>
        <dc:type
           rdf:resource="http://purl.org/dc/dcmitype/StillImage" />
        <cc:license
           rdf:resource="http://web.resource.org/cc/PublicDomain" />
        <dc:language>en</dc:language>
      </cc:Work>
      <cc:License
         rdf:about="http://web.resource.org/cc/PublicDomain">
        <cc:permits
           rdf:resource="http://web.resource.org/cc/Reproduction" />
        <cc:permits
           rdf:resource="http://web.resource.org/cc/Distribution" />
        <cc:permits
           rdf:resource="http://web.resource.org/cc/DerivativeWorks" />
      </cc:License>
    </rdf:RDF>
  </metadata>
  <sodipodi:namedview
     bordercolor="#666666"
     borderopacity="1.0"
     id="base"
     inkscape:current-layer="g2299"
     inkscape:cx="262.31741"
     inkscape:cy="291.6746"
     inkscape:pageopacity="0.0"
     inkscape:pageshadow="2"
     inkscape:window-height="1178"
     inkscape:window-width="1920"
     inkscape:window-x="-8"
     inkscape:window-y="-8"
     inkscape:zoom="0.86831672"
     pagecolor="#ffffff"
     showgrid="false"
     fit-margin-top="0"
     fit-margin-left="0"
     fit-margin-right="0"
     fit-margin-bottom="0"
     inkscape:window-maximized="1" />
  <defs
     id="defs2289">
    <inkscape:perspective
       sodipodi:type="inkscape:persp3d"
       inkscape:vp_x="0 : 237.7245 : 1"
       inkscape:vp_y="0 : 1000 : 0"
       inkscape:vp_z="357.08099 : 237.7245 : 1"
       inkscape:persp3d-origin="178.5405 : 158.483 : 1"
       id="perspective31" />
    <marker
       id="ArrowEnd"
       markerHeight="3"
       markerUnits="strokeWidth"
       markerWidth="4"
       orient="auto"
       refX="0"
       refY="5"
       viewBox="0 0 10 10">
      <path
         d="M 0,0 10,5 0,10 z"
         id="path2292"
         inkscape:connector-curvature="0" />
    </marker>
    <marker
       id="ArrowStart"
       markerHeight="3"
       markerUnits="strokeWidth"
       markerWidth="4"
       orient="auto"
       refX="10"
       refY="5"
       viewBox="0 0 10 10">
      <path
         d="M 10,0 0,5 10,10 z"
         id="path2295"
         inkscape:connector-curvature="0" />
    </marker>
  </defs>
  <g
     id="g2297"
     transform="translate(0,-176.821)">
    <g
       id="g2299">
      <path
         d="m 214.064,176.821 41.43,0 c 22.548,0 34.512,12.316 40.034,26.725 l 29.335,75.669 c 11.62,1.49 32.218,15.146 32.218,40.985 l 0,96.245 -28.527,0 0,30.769 c 0,37.87 -53.599,37.424 -53.599,0 l 0,-30.769 -96.389,0 -0.054,0 0.056,0 -0.052,0 -96.389,0 0,30.769 c 0,37.424 -53.599,37.87 -53.599,0 l 0,-30.769 -28.528,0 0,-96.245 c 0,-25.839 20.577,-39.495 32.197,-40.985 l 29.335,-75.669 c 5.522,-14.409 17.487,-26.725 40.035,-26.725 l 41.911,0 70.586,0 z"
         id="path2301"
         style="fill:#000000;stroke:none"
         inkscape:connector-curvature="0" />
    </g>
    <g
       id="g2313">
      <path
         d="m 178.512,278.445 -0.054,0 -115.89,0 22.087,-59.56 c 2.761,-8.367 6.904,-14.409 16.568,-14.499 l 77.235,0 0.054,0 0.054,0 77.274,0 c 9.663,0.09 13.805,6.132 16.566,14.499 l 22.086,59.56 -115.926,0 -0.054,0 z"
         id="path2315"
         style="fill:#ffffff;stroke:none"
         inkscape:connector-curvature="0" />
      <g
         id="g2317">
        <g
           id="g2319">
          <path
             d="m 56.18,358.445 c -13.672,0 -24.758,-11.426 -24.758,-25.519 0,-14.092 11.086,-25.517 24.758,-25.517 13.673,0 24.757,11.425 24.757,25.517 0,14.093 -11.084,25.519 -24.757,25.519 z"
             id="path2321"
             style="fill:#ffffff;stroke:none"
             inkscape:connector-curvature="0" />
          <path
             d="M 56.18,332.926"
             id="path2323"
             style="fill:#ffffff;stroke:none"
             inkscape:connector-curvature="0" />
        </g>
        <g
           id="g2325">
          <path
             d="m 300.881,358.445 c 13.673,0 24.757,-11.426 24.757,-25.519 0,-14.092 -11.084,-25.517 -24.757,-25.517 -13.672,0 -24.758,11.425 -24.758,25.517 0,14.093 11.086,25.519 24.758,25.519 z"
             id="path2327"
             style="fill:#ffffff;stroke:none"
             inkscape:connector-curvature="0" />
          <path
             d="M 300.881,332.926"
             id="path2329"
             style="fill:#ffffff;stroke:none"
             inkscape:connector-curvature="0" />
        </g>
      </g>
      <g
         id="g2331">
        <path
           d="m 69.789,93.342 c 10.745,0 19.457,-8.802 19.457,-19.656 0,-10.855 -8.712,-19.656 -19.457,-19.656 -10.745,0 -19.457,8.801 -19.457,19.656 0,10.854 8.712,19.656 19.457,19.656 z"
           id="path2333"
           style="fill:#ffffff;stroke:none"
           inkscape:connector-curvature="0" />
        <path
           d="M 69.789,73.686"
           id="path2335"
           style="fill:#ffffff;stroke:none"
           inkscape:connector-curvature="0" />
      </g>
    </g>
  </g>
</svg>
