<?xml version="1.0" encoding="UTF-8" standalone="no"?>
<svg
   xmlns:dc="http://purl.org/dc/elements/1.1/"
   xmlns:cc="http://creativecommons.org/ns#"
   xmlns:rdf="http://www.w3.org/1999/02/22-rdf-syntax-ns#"
   xmlns:svg="http://www.w3.org/2000/svg"
   xmlns="http://www.w3.org/2000/svg"
   xmlns:sodipodi="http://sodipodi.sourceforge.net/DTD/sodipodi-0.dtd"
   xmlns:inkscape="http://www.inkscape.org/namespaces/inkscape"
   height="303.489"
   id="svg1985"
   inkscape:version="0.46"
   sodipodi:docbase="/datas/Projs/Cliparts Stocker/tmp/AIGA"
   sodipodi:docname="aiga_heliport_.svg"
   sodipodi:version="0.32"
   width="480.22"
   inkscape:output_extension="org.inkscape.output.svg.inkscape"
   inkscape:export-filename="/home/joanna/gfx/vector/aiga/aiga_heliport_.png"
   inkscape:export-xdpi="59.222855"
   inkscape:export-ydpi="59.222855">
  <metadata
     id="metadata3">
    <rdf:RDF>
      <cc:Work
         rdf:about="">
        <dc:title>AIGA_Symbol_Signs</dc:title>
        <dc:description>EPS converted from  http://aiga.org</dc:description>
        <dc:subject>
          <rdf:Bag>
            <rdf:li>symbol</rdf:li>
            <rdf:li>mapsym</rdf:li>
          </rdf:Bag>
        </dc:subject>
        <dc:publisher>
          <cc:Agent
             rdf:about="http://www.openclipart.org/">
            <dc:title>Open Clip Art Library</dc:title>
          </cc:Agent>
        </dc:publisher>
        <dc:creator>
          <cc:Agent>
            <dc:title>Jean-Victor Balin</dc:title>
          </cc:Agent>
        </dc:creator>
        <dc:rights>
          <cc:Agent>
            <dc:title>Jean-Victor Balin</dc:title>
          </cc:Agent>
        </dc:rights>
        <dc:date />
        <dc:format>image/svg+xml</dc:format>
        <dc:type
           rdf:resource="http://purl.org/dc/dcmitype/StillImage" />
        <cc:license
           rdf:resource="http://web.resource.org/cc/PublicDomain" />
        <dc:language>en</dc:language>
      </cc:Work>
      <cc:License
         rdf:about="http://web.resource.org/cc/PublicDomain">
        <cc:permits
           rdf:resource="http://web.resource.org/cc/Reproduction" />
        <cc:permits
           rdf:resource="http://web.resource.org/cc/Distribution" />
        <cc:permits
           rdf:resource="http://web.resource.org/cc/DerivativeWorks" />
      </cc:License>
    </rdf:RDF>
  </metadata>
  <sodipodi:namedview
     bordercolor="#666666"
     borderopacity="1.0"
     id="base"
     inkscape:current-layer="svg1985"
     inkscape:cx="305.25953"
     inkscape:cy="214.10097"
     inkscape:pageopacity="0.0"
     inkscape:pageshadow="2"
     inkscape:window-height="715"
     inkscape:window-width="1150"
     inkscape:window-x="0"
     inkscape:window-y="0"
     inkscape:zoom="0.86831672"
     pagecolor="#ffffff"
     showgrid="false" />
  <defs
     id="defs1987">
    <inkscape:perspective
       sodipodi:type="inkscape:persp3d"
       inkscape:vp_x="0 : 151.74451 : 1"
       inkscape:vp_y="0 : 1000 : 0"
       inkscape:vp_z="480.22 : 151.74451 : 1"
       inkscape:persp3d-origin="240.11 : 101.163 : 1"
       id="perspective38" />
    <marker
       id="ArrowEnd"
       markerHeight="3"
       markerUnits="strokeWidth"
       markerWidth="4"
       orient="auto"
       refX="0"
       refY="5"
       viewBox="0 0 10 10">
      <path
         d="M 0 0 L 10 5 L 0 10 z"
         id="path1990" />
    </marker>
    <marker
       id="ArrowStart"
       markerHeight="3"
       markerUnits="strokeWidth"
       markerWidth="4"
       orient="auto"
       refX="10"
       refY="5"
       viewBox="0 0 10 10">
      <path
         d="M 10 0 L 0 5 L 10 10 z"
         id="path1993" />
    </marker>
  </defs>
  <path
     style="fill:#000000;stroke:none"
     d="M 52.1875 30.375 C 23.3665 30.374999 0 53.7395 0 82.5625 C 0 111.3835 23.3665 134.75 52.1875 134.75 C 81.0085 134.75 104.375 111.3835 104.375 82.5625 C 104.375 53.7395 81.0085 30.375 52.1875 30.375 z M 52.1875 49.34375 C 70.5285 49.34375 85.406248 64.2195 85.40625 82.5625 C 85.40625 100.9025 70.5285 115.75 52.1875 115.75 C 33.8455 115.75 18.968751 100.9025 18.96875 82.5625 C 18.96875 64.2195 33.8455 49.343749 52.1875 49.34375 z "
     id="path1999" />
  <path
     d=""
     id="path2001"
     style="fill:#000000;stroke:none" />
  <path
     d=""
     id="path2007"
     style="fill:#ffffff;stroke:none" />
  <path
     d="M 220.085,249.813 C 180.146,249.813 180.146,303.489 220.085,303.489 L 450.945,303.489 C 489.677,303.489 489.677,249.813 450.945,249.813 L 220.085,249.813 z"
     id="path2011"
     style="fill:#000000;stroke:none" />
  <g
     id="g2013">
    <g
       id="g2015">
      <path
         d="M 288.313,65.241 L 288.313,16.357 L 267.705,16.357 L 267.705,65.241 L 288.313,65.241 z"
         id="path2017"
         style="fill:#000000;stroke:none" />
      <path
         d=""
         id="path2019"
         style="fill:#000000;stroke:none" />
    </g>
    <g
       id="g2021">
      <path
         d="M 319.942,17.733 L 319.942,7.189 L 236.554,7.189 L 236.554,17.733 L 319.942,17.733 z"
         id="path2023"
         style="fill:#000000;stroke:none" />
      <path
         d=""
         id="path2025"
         style="fill:#000000;stroke:none" />
    </g>
    <path
       d="M 327.13,0 L 460.237,0 C 477.969,0 477.969,25.401 460.237,25.401 L 327.13,25.401 C 309.877,25.401 309.877,0 327.13,0 z"
       id="path2027"
       style="fill:#000000;stroke:none" />
    <path
       d="M 96.32,0 L 227.928,0 C 245.66,0 245.66,25.401 227.928,25.401 L 96.32,25.401 C 77.576,25.401 77.31,0 96.32,0 z"
       id="path2029"
       style="fill:#000000;stroke:none" />
  </g>
  <path
     style="fill:#000000;stroke:none"
     d="M 53.9375 63.875 C 32.9375 63.875 28.43525 91.195998 46.90625 98.375 L 198.9375 158.75 L 212.21875 192.3125 C 215.06775 202.8555 223.62275 215.31249 240.71875 215.3125 L 447.1875 215.3125 C 470.8635 215.1975 486.93749 195.9375 477.4375 173.9375 L 450.9375 109.4375 C 441.4375 85.9375 420.93401 63.874998 384.125 63.875 L 53.9375 63.875 z M 288.625 84.6875 L 324.25 84.6875 L 324.25 141.71875 L 288.625 141.71875 L 288.625 84.6875 z M 345.40625 84.6875 L 380.53125 84.6875 L 380.53125 141.71875 L 345.40625 141.71875 L 345.40625 84.6875 z M 402.1875 86.9375 C 413.20049 89.593499 424.1875 99.4375 431.4375 115.6875 L 442.6875 141.9375 L 402.1875 141.9375 L 402.1875 86.9375 z "
     id="path2031" />
  <path
     style="fill:#ffffff;stroke:none"
     id="path2039"
     d="" />
  <path
     style="fill:#ffffff;stroke:none"
     id="path2045"
     d="" />
</svg>
